<svg width="51" height="52" viewBox="0 0 51 52" fill="none" xmlns="http://www.w3.org/2000/svg">
<path d="M50.0125 2.66054C51.1101 3.75823 51.1101 5.53794 50.0125 6.63563L14.7996 41.8485C14.3569 42.2912 14.6704 43.0481 15.2965 43.0481L45.1892 43.0481C46.7416 43.0481 48 44.3065 48 45.8589L48 48.2373C48 49.7897 46.7416 51.0481 45.1892 51.0481L1.40541 51.0481C0.629222 51.0481 -2.75041e-08 50.4189 -6.14322e-08 49.6427L-1.97528e-06 5.8589C-2.04314e-06 4.30653 1.25844 3.04809 2.81081 3.04809L5.18919 3.04809C6.74156 3.04809 8 4.30653 8 5.8589L8 35.7516C8 36.3777 8.75691 36.6912 9.19959 36.2485L44.4125 1.03563C45.5101 -0.0620622 47.2899 -0.0620622 48.3875 1.03563L50.0125 2.66054Z" fill="#1C1B1F"/>
</svg>
