<svg width="52" height="53" viewBox="0 0 52 53" fill="none" xmlns="http://www.w3.org/2000/svg">
<path d="M15.6144 52.0481C14.1831 52.0481 12.9578 51.5385 11.9385 50.5192C10.9193 49.4999 10.4096 48.2746 10.4096 46.8433C10.4096 45.412 10.9193 44.1867 11.9385 43.1674C12.9578 42.1481 14.1831 41.6385 15.6144 41.6385C17.0457 41.6385 18.271 42.1481 19.2903 43.1674C20.3096 44.1867 20.8192 45.412 20.8192 46.8433C20.8192 48.2746 20.3096 49.4999 19.2903 50.5192C18.271 51.5385 17.0457 52.0481 15.6144 52.0481ZM41.6385 52.0481C40.2071 52.0481 38.9819 51.5385 37.9626 50.5192C36.9433 49.4999 36.4337 48.2746 36.4337 46.8433C36.4337 45.412 36.9433 44.1867 37.9626 43.1674C38.9819 42.1481 40.2071 41.6385 41.6385 41.6385C43.0698 41.6385 44.2951 42.1481 45.3144 43.1674C46.3336 44.1867 46.8433 45.412 46.8433 46.8433C46.8433 48.2746 46.3336 49.4999 45.3144 50.5192C44.2951 51.5385 43.0698 52.0481 41.6385 52.0481ZM13.4024 10.4096L19.6482 23.4216H37.865L45.0216 10.4096H13.4024ZM10.9301 5.20481H49.3156C50.3132 5.20481 51.0722 5.64939 51.5927 6.53854C52.1131 7.4277 52.1348 8.32769 51.6577 9.23854L42.4192 25.8939C41.9421 26.7614 41.3023 27.4337 40.4999 27.9108C39.6975 28.3879 38.8192 28.6264 37.865 28.6264H18.4771L15.6144 33.8313H46.8433V39.0361H15.6144C13.6626 39.0361 12.1879 38.1794 11.1903 36.4662C10.1928 34.7529 10.1494 33.0505 11.0602 31.359L14.5735 24.9831L5.20481 5.20481H0V0H8.45781L10.9301 5.20481Z" fill="#1C1B1F"/>
</svg>
