<svg width="52" height="43" viewBox="0 0 52 43" fill="none" xmlns="http://www.w3.org/2000/svg">
<path d="M8.65341 42.048C7.79046 42.048 7.09091 41.3484 7.09091 40.4855V20.2735C7.09091 20.1443 6.94285 20.0709 6.84 20.1492L4.08672 22.2459C3.39735 22.7708 2.41244 22.6345 1.89151 21.9421L0.932296 20.6672C0.416266 19.9813 0.55012 19.0076 1.23208 18.4864L7.02954 14.0555C7.06822 14.026 7.09091 13.9801 7.09091 13.9314V8.26675C7.09091 7.4038 7.79046 6.70425 8.65341 6.70425H10.2557C11.1186 6.70425 11.8182 7.4038 11.8182 8.26675V10.1003C11.8182 10.2295 11.9661 10.3029 12.069 10.2247L25.0538 0.354751C25.6129 -0.0702565 26.3869 -0.069979 26.9457 0.35543L50.7544 18.4797C51.4419 19.0032 51.5741 19.9853 51.0494 20.6718L50.1025 21.9107C49.5824 22.5912 48.6114 22.7262 47.9254 22.2133L45.5336 20.4251C45.276 20.2325 44.9091 20.4163 44.9091 20.7379V40.4855C44.9091 41.3484 44.2095 42.048 43.3466 42.048H8.65341ZM11.8182 37.3355H23.6364V29.473C23.6364 28.6101 24.3359 27.9105 25.1989 27.9105H26.8011C27.6641 27.9105 28.3636 28.6101 28.3636 29.473V37.3355H40.1818V16.5586C40.1818 16.4365 40.1248 16.3215 40.0276 16.2476L26.2364 5.76471C26.0967 5.65852 25.9033 5.65852 25.7636 5.76471L11.9724 16.2476C11.8752 16.3215 11.8182 16.4365 11.8182 16.5586V37.3355Z" fill="#1C1B1F"/>
</svg>
