<svg width="158" height="156" viewBox="0 0 158 156" fill="none" xmlns="http://www.w3.org/2000/svg">
<path d="M0.5 131.551C0.5 99.492 28.8638 73.4596 55.2804 73.4596C73.6053 73.4596 78.0837 84.8978 78.0837 97.8173C78.0837 126.766 53.0951 155.237 24.2987 155.237C10.2575 155.237 0.5 146.863 0.5 131.551ZM24.5367 154.041C48.0973 154.041 65.7083 113.129 65.7083 90.4005C65.7083 81.7876 62.8525 74.1316 54.047 74.1316C31.2003 74.1316 12.8753 113.368 12.8753 138.729C12.8753 149.256 17.1591 154.041 24.5367 154.041Z" fill="black"/>
<path d="M125.783 134.378C109.753 134.378 100.076 124.017 100.076 108.476V107.205C100.076 91.8595 109.948 81.401 125.783 81.401C142.79 81.401 150.316 94.9384 148.948 106.753C147.579 118.568 112.685 102.025 113.272 110.822C113.858 119.619 118.256 123.919 125.783 123.919C131.843 123.919 133.675 120.804 136.437 117.761C139.198 114.719 144.366 110.113 150.023 117.761C155.68 125.41 138.782 134.378 125.783 134.378ZM113.467 102.22C115.959 104.615 137.316 108.769 136.632 102.22C135.948 95.6715 132.331 91.5663 125.685 91.5663C118.745 91.5663 110.975 99.8256 113.467 102.22Z" fill="black"/>
<path fill-rule="evenodd" clip-rule="evenodd" d="M132.988 0.763062C106.571 0.763062 79.9168 27.3743 79.9168 59.4996C79.9168 74.3387 89.0434 82.6748 102.345 83.2067C100.845 84.653 99.7522 88.7316 98.3976 93.7874C96.1725 102.092 93.2408 113.034 86.6371 119.277C85.6694 120.192 84.862 116.139 83.6785 110.198C81.3055 98.2855 77.4203 78.782 67.6989 76.514C63.8654 75.6197 62.9529 79.4799 65.2557 82.6724C78.6579 101.252 78.4847 116.113 78.3689 126.054C78.3251 129.816 78.2894 132.873 79.0004 135.16C79.6208 137.156 85.4427 136.875 86.6371 135.16C88.6881 132.215 94.2116 124.632 100.456 116.058C111.879 100.375 125.716 81.3784 125.123 81.4018C122.71 81.4971 120.519 81.4903 118.403 81.4838C117.618 81.4814 116.843 81.479 116.071 81.4819C139.303 74.8565 157.5 50.4509 157.5 25.6961C157.5 12.7501 151.313 0.763062 132.988 0.763062ZM145.125 18.2641C145.125 41.0395 127.514 82.0352 103.953 82.0352C96.5759 82.0352 92.2921 77.2404 92.2921 66.6918C92.2921 41.2793 110.617 1.96176 133.464 1.96176C142.269 1.96176 145.125 9.63347 145.125 18.2641Z" fill="black"/>
<path d="M72.2193 65.518C67.3739 67.7719 58.5353 65.518 58.5353 65.518C58.5353 65.518 46.6229 20.617 53.0372 13.5918C57.9495 8.21168 68.451 11.0777 71.6329 15.0825C74.033 18.1034 69.5803 31.1124 72.0239 24.9546C74.4674 18.7967 79.4524 14.2028 86.8808 14.2028C87.8583 14.2028 99.502 14.3005 100.382 14.496L89.9109 27.5936C88.9334 27.4959 87.3696 27.3981 86.0989 27.3981C77.0088 27.3981 72.2193 32.2853 72.2193 41.1799C72.2193 50.0746 77.4731 63.0742 72.2193 65.518Z" fill="black"/>
<path d="M38.9861 83.4051C24.0314 83.4051 16.4074 77.0518 15.039 68.5482C13.6706 60.0445 29.0163 64.9317 29.7983 68.5482C30.5802 72.1646 33.317 74.0218 39.8658 74.0218C47.6853 74.0218 51.204 70.2098 51.204 63.5632V56.2325C48.565 60.7287 43.2868 64.2474 35.9561 64.2474C22.3698 64.2474 13.9639 53.4957 13.9639 39.5184V38.4432C13.9639 24.5637 22.0766 13.812 35.5651 13.812C43.8733 13.812 48.4108 19.5897 49.1348 21.6413C49.8589 23.6929 50.5914 17.5889 52.2792 15.0826C55.051 10.9666 64.9858 15.0826 64.9858 15.0826V61.6084C64.9858 75.5857 55.798 83.4051 38.9861 83.4051ZM39.7681 53.6912C47.5875 53.6912 51.6927 48.413 51.6927 39.5184V38.4432C51.6927 29.5486 47.5875 24.2705 39.7681 24.2705C32.0464 24.2705 22.7974 29.5486 22.7974 38.4432V39.5184C22.7974 48.413 32.0464 53.6912 39.7681 53.6912Z" fill="black"/>
</svg>
