<svg width="651" height="640" viewBox="0 0 651 640" fill="none" xmlns="http://www.w3.org/2000/svg">
<path d="M0 541.868C0 409.043 117.514 301.188 226.96 301.188C302.882 301.188 321.436 348.578 321.436 402.105C321.436 522.043 217.906 640 98.6002 640C40.4261 640 0 605.307 0 541.868ZM99.5861 635.044C197.2 635.044 270.164 465.543 270.164 371.376C270.164 335.692 258.332 303.973 221.85 303.973C127.194 303.973 51.2721 466.535 51.2721 571.605C51.2721 615.219 69.0201 635.044 99.5861 635.044Z" fill="white"/>
<path d="M519.057 553.579C452.643 553.579 412.552 510.654 412.552 446.265V441.001C412.552 377.422 453.453 334.091 519.057 334.091C589.519 334.091 620.701 390.178 615.032 439.128C609.362 488.077 464.792 419.538 467.222 455.984C469.652 492.431 487.875 510.249 519.057 510.249C544.164 510.249 551.757 497.341 563.197 484.736C574.637 472.132 596.049 453.048 619.486 484.736C642.923 516.424 572.916 553.579 519.057 553.579ZM468.032 420.348C478.358 430.269 566.842 447.48 564.007 420.348C561.172 393.215 546.189 376.207 518.652 376.207C489.899 376.207 457.705 410.426 468.032 420.348Z" fill="white"/>
<path fill-rule="evenodd" clip-rule="evenodd" d="M548.908 0C439.462 0 329.03 110.253 329.03 243.351C329.03 304.831 366.842 339.368 421.952 341.572C415.737 347.564 411.21 364.462 405.597 385.409C396.378 419.817 384.232 465.151 356.872 491.016C352.863 494.806 349.518 478.014 344.615 453.4C334.783 404.045 318.686 323.24 278.41 313.843C262.527 310.138 258.746 326.131 268.287 339.358C323.814 416.334 323.096 477.908 322.616 519.094C322.435 534.678 322.287 547.343 325.233 556.819C327.803 565.088 351.924 563.924 356.872 556.819C365.37 544.618 388.254 513.2 414.125 477.68C461.453 412.702 518.778 333.997 516.325 334.094C506.328 334.489 497.25 334.461 488.483 334.434C485.23 334.424 482.019 334.414 478.821 334.426C575.073 306.976 650.466 205.861 650.466 103.3C650.466 49.6634 624.83 0 548.908 0ZM599.194 72.5086C599.194 166.869 526.23 336.718 428.616 336.718C398.05 336.718 380.302 316.853 380.302 273.149C380.302 167.862 456.224 4.96632 550.88 4.96632C587.362 4.96632 599.194 36.7509 599.194 72.5086Z" fill="white"/>
<path d="M297.139 268.286C277.064 277.624 240.444 268.286 240.444 268.286C240.444 268.286 191.09 82.2574 217.665 53.1513C238.018 30.861 281.526 42.7353 294.709 59.3274C304.653 71.8433 286.205 125.741 296.329 100.228C306.453 74.7159 327.106 55.6828 357.883 55.6828C361.932 55.6828 410.173 56.0877 413.818 56.8977L370.436 111.162C366.387 110.757 359.908 110.352 354.643 110.352C316.982 110.352 297.139 130.6 297.139 167.452C297.139 204.303 318.906 258.162 297.139 268.286Z" fill="white"/>
<path d="M159.453 342.393C97.494 342.393 65.9072 316.071 60.2378 280.84C54.5683 245.608 118.147 265.856 121.387 280.84C124.626 295.823 135.965 303.517 163.097 303.517C195.494 303.517 210.073 287.724 210.073 260.187V229.815C199.139 248.443 177.271 263.021 146.899 263.021C90.6097 263.021 55.7832 218.476 55.7832 160.567V156.112C55.7832 98.6078 89.3948 54.0622 145.279 54.0622C179.701 54.0622 198.5 78.0001 201.5 86.5001C204.5 95.0001 207.535 69.7103 214.527 59.3267C226.011 42.2739 267.172 59.3267 267.172 59.3267V252.087C267.172 309.997 229.106 342.393 159.453 342.393ZM162.692 219.286C195.089 219.286 212.098 197.418 212.098 160.567V156.112C212.098 119.261 195.089 97.3929 162.692 97.3929C130.701 97.3929 92.3813 119.261 92.3813 156.112V160.567C92.3813 197.418 130.701 219.286 162.692 219.286Z" fill="white"/>
</svg>
